<mxfile host="app.diagrams.net" agent="Mozilla/5.0 (Windows NT 10.0; Win64; x64) AppleWebKit/537.36 (KHTML, like Gecko) Chrome/130.0.0.0 YaBrowser/24.12.0.0 Safari/537.36" version="26.0.9">
  <diagram name="Страница — 1" id="LfI7F58NbCS8B1GgpxhB">
    <mxGraphModel dx="1050" dy="575" grid="1" gridSize="10" guides="1" tooltips="1" connect="1" arrows="1" fold="1" page="1" pageScale="1" pageWidth="827" pageHeight="1169" math="0" shadow="0">
      <root>
        <mxCell id="0" />
        <mxCell id="1" parent="0" />
        <mxCell id="pRtf4ImA8-UgucGfnO2y-2" style="edgeStyle=orthogonalEdgeStyle;rounded=0;orthogonalLoop=1;jettySize=auto;html=1;" edge="1" parent="1" source="pRtf4ImA8-UgucGfnO2y-1" target="pRtf4ImA8-UgucGfnO2y-3">
          <mxGeometry relative="1" as="geometry">
            <mxPoint x="110" y="80" as="targetPoint" />
          </mxGeometry>
        </mxCell>
        <mxCell id="pRtf4ImA8-UgucGfnO2y-1" value="fractal начало" style="ellipse;whiteSpace=wrap;html=1;" vertex="1" parent="1">
          <mxGeometry x="50" width="120" height="60" as="geometry" />
        </mxCell>
        <mxCell id="pRtf4ImA8-UgucGfnO2y-6" style="edgeStyle=orthogonalEdgeStyle;rounded=0;orthogonalLoop=1;jettySize=auto;html=1;" edge="1" parent="1" source="pRtf4ImA8-UgucGfnO2y-3" target="pRtf4ImA8-UgucGfnO2y-7">
          <mxGeometry relative="1" as="geometry">
            <mxPoint x="110" y="170" as="targetPoint" />
          </mxGeometry>
        </mxCell>
        <mxCell id="pRtf4ImA8-UgucGfnO2y-3" value="инициализация depth, dividedangle" style="shape=parallelogram;perimeter=parallelogramPerimeter;whiteSpace=wrap;html=1;fixedSize=1;" vertex="1" parent="1">
          <mxGeometry x="50" y="80" width="120" height="60" as="geometry" />
        </mxCell>
        <mxCell id="pRtf4ImA8-UgucGfnO2y-4" value="" style="endArrow=none;dashed=1;html=1;rounded=0;" edge="1" parent="1" target="pRtf4ImA8-UgucGfnO2y-5">
          <mxGeometry width="50" height="50" relative="1" as="geometry">
            <mxPoint x="160" y="110" as="sourcePoint" />
            <mxPoint x="240" y="110" as="targetPoint" />
          </mxGeometry>
        </mxCell>
        <mxCell id="pRtf4ImA8-UgucGfnO2y-5" value="по значению&amp;nbsp;" style="strokeWidth=2;html=1;shape=mxgraph.flowchart.annotation_1;align=left;pointerEvents=1;" vertex="1" parent="1">
          <mxGeometry x="215" y="80" width="50" height="60" as="geometry" />
        </mxCell>
        <mxCell id="pRtf4ImA8-UgucGfnO2y-8" style="edgeStyle=orthogonalEdgeStyle;rounded=0;orthogonalLoop=1;jettySize=auto;html=1;" edge="1" parent="1" source="pRtf4ImA8-UgucGfnO2y-7" target="pRtf4ImA8-UgucGfnO2y-14">
          <mxGeometry relative="1" as="geometry">
            <mxPoint x="110" y="250" as="targetPoint" />
          </mxGeometry>
        </mxCell>
        <mxCell id="pRtf4ImA8-UgucGfnO2y-11" style="edgeStyle=orthogonalEdgeStyle;rounded=0;orthogonalLoop=1;jettySize=auto;html=1;entryX=0.5;entryY=0;entryDx=0;entryDy=0;" edge="1" parent="1" source="pRtf4ImA8-UgucGfnO2y-7" target="pRtf4ImA8-UgucGfnO2y-51">
          <mxGeometry relative="1" as="geometry">
            <mxPoint x="220" y="190" as="targetPoint" />
            <Array as="points">
              <mxPoint x="250" y="190" />
              <mxPoint x="250" y="1370" />
              <mxPoint x="110" y="1370" />
            </Array>
          </mxGeometry>
        </mxCell>
        <mxCell id="pRtf4ImA8-UgucGfnO2y-7" value="depth &amp;lt;= 0" style="rhombus;whiteSpace=wrap;html=1;" vertex="1" parent="1">
          <mxGeometry x="50" y="160" width="120" height="60" as="geometry" />
        </mxCell>
        <mxCell id="pRtf4ImA8-UgucGfnO2y-10" value="нет" style="text;html=1;align=center;verticalAlign=middle;whiteSpace=wrap;rounded=0;" vertex="1" parent="1">
          <mxGeometry x="100" y="210" width="60" height="30" as="geometry" />
        </mxCell>
        <mxCell id="pRtf4ImA8-UgucGfnO2y-13" value="да" style="text;html=1;align=center;verticalAlign=middle;whiteSpace=wrap;rounded=0;" vertex="1" parent="1">
          <mxGeometry x="160" y="160" width="60" height="30" as="geometry" />
        </mxCell>
        <mxCell id="pRtf4ImA8-UgucGfnO2y-17" style="edgeStyle=orthogonalEdgeStyle;rounded=0;orthogonalLoop=1;jettySize=auto;html=1;" edge="1" parent="1" source="pRtf4ImA8-UgucGfnO2y-14" target="pRtf4ImA8-UgucGfnO2y-18">
          <mxGeometry relative="1" as="geometry">
            <mxPoint x="110" y="310" as="targetPoint" />
          </mxGeometry>
        </mxCell>
        <mxCell id="pRtf4ImA8-UgucGfnO2y-14" value="Dec(depth)&lt;div&gt;Fractal(depth, dividedAngle);&lt;/div&gt;" style="rounded=0;whiteSpace=wrap;html=1;" vertex="1" parent="1">
          <mxGeometry x="50" y="240" width="120" height="40" as="geometry" />
        </mxCell>
        <mxCell id="pRtf4ImA8-UgucGfnO2y-19" style="edgeStyle=orthogonalEdgeStyle;rounded=0;orthogonalLoop=1;jettySize=auto;html=1;" edge="1" parent="1" source="pRtf4ImA8-UgucGfnO2y-18" target="pRtf4ImA8-UgucGfnO2y-20">
          <mxGeometry relative="1" as="geometry">
            <mxPoint x="110" y="400" as="targetPoint" />
          </mxGeometry>
        </mxCell>
        <mxCell id="pRtf4ImA8-UgucGfnO2y-18" value="&lt;div&gt;&lt;span style=&quot;background-color: transparent; color: light-dark(rgb(0, 0, 0), rgb(255, 255, 255));&quot;&gt;Draw()&lt;/span&gt;&lt;/div&gt;" style="shape=parallelogram;perimeter=parallelogramPerimeter;whiteSpace=wrap;html=1;fixedSize=1;" vertex="1" parent="1">
          <mxGeometry x="50" y="300" width="120" height="40" as="geometry" />
        </mxCell>
        <mxCell id="pRtf4ImA8-UgucGfnO2y-21" style="edgeStyle=orthogonalEdgeStyle;rounded=0;orthogonalLoop=1;jettySize=auto;html=1;" edge="1" parent="1" source="pRtf4ImA8-UgucGfnO2y-20" target="pRtf4ImA8-UgucGfnO2y-22">
          <mxGeometry relative="1" as="geometry">
            <mxPoint x="110" y="480" as="targetPoint" />
          </mxGeometry>
        </mxCell>
        <mxCell id="pRtf4ImA8-UgucGfnO2y-20" value="&lt;div&gt;&lt;span style=&quot;background-color: transparent; color: light-dark(rgb(0, 0, 0), rgb(255, 255, 255));&quot;&gt;Draw()&lt;/span&gt;&lt;/div&gt;" style="shape=parallelogram;perimeter=parallelogramPerimeter;whiteSpace=wrap;html=1;fixedSize=1;" vertex="1" parent="1">
          <mxGeometry x="50" y="420" width="120" height="40" as="geometry" />
        </mxCell>
        <mxCell id="pRtf4ImA8-UgucGfnO2y-23" style="edgeStyle=orthogonalEdgeStyle;rounded=0;orthogonalLoop=1;jettySize=auto;html=1;" edge="1" parent="1" source="pRtf4ImA8-UgucGfnO2y-22" target="pRtf4ImA8-UgucGfnO2y-24">
          <mxGeometry relative="1" as="geometry">
            <mxPoint x="110" y="560" as="targetPoint" />
          </mxGeometry>
        </mxCell>
        <mxCell id="pRtf4ImA8-UgucGfnO2y-22" value="&lt;div&gt;Fractal(depth, dividedAngle);&lt;/div&gt;&lt;div&gt;&amp;nbsp; angle += dividedAngle&lt;/div&gt;" style="rounded=0;whiteSpace=wrap;html=1;" vertex="1" parent="1">
          <mxGeometry x="50" y="480" width="120" height="65" as="geometry" />
        </mxCell>
        <mxCell id="pRtf4ImA8-UgucGfnO2y-26" style="edgeStyle=orthogonalEdgeStyle;rounded=0;orthogonalLoop=1;jettySize=auto;html=1;" edge="1" parent="1" source="pRtf4ImA8-UgucGfnO2y-24" target="pRtf4ImA8-UgucGfnO2y-27">
          <mxGeometry relative="1" as="geometry">
            <mxPoint x="110" y="630" as="targetPoint" />
          </mxGeometry>
        </mxCell>
        <mxCell id="pRtf4ImA8-UgucGfnO2y-24" value="draw()" style="shape=parallelogram;perimeter=parallelogramPerimeter;whiteSpace=wrap;html=1;fixedSize=1;" vertex="1" parent="1">
          <mxGeometry x="50" y="565" width="120" height="40" as="geometry" />
        </mxCell>
        <mxCell id="pRtf4ImA8-UgucGfnO2y-25" value="Fractal(depth, -dividedAngle);" style="rounded=0;whiteSpace=wrap;html=1;" vertex="1" parent="1">
          <mxGeometry x="50" y="360" width="120" height="30" as="geometry" />
        </mxCell>
        <mxCell id="pRtf4ImA8-UgucGfnO2y-28" style="edgeStyle=orthogonalEdgeStyle;rounded=0;orthogonalLoop=1;jettySize=auto;html=1;" edge="1" parent="1" source="pRtf4ImA8-UgucGfnO2y-27" target="pRtf4ImA8-UgucGfnO2y-29">
          <mxGeometry relative="1" as="geometry">
            <mxPoint x="110" y="710" as="targetPoint" />
          </mxGeometry>
        </mxCell>
        <mxCell id="pRtf4ImA8-UgucGfnO2y-27" value="&lt;div&gt;angle += dividedAngle;&lt;/div&gt;&lt;div&gt;&amp;nbsp; Fractal(depth, -dividedAngle)&lt;/div&gt;" style="rounded=0;whiteSpace=wrap;html=1;" vertex="1" parent="1">
          <mxGeometry x="50" y="620" width="120" height="60" as="geometry" />
        </mxCell>
        <mxCell id="pRtf4ImA8-UgucGfnO2y-30" style="edgeStyle=orthogonalEdgeStyle;rounded=0;orthogonalLoop=1;jettySize=auto;html=1;" edge="1" parent="1" source="pRtf4ImA8-UgucGfnO2y-29" target="pRtf4ImA8-UgucGfnO2y-31">
          <mxGeometry relative="1" as="geometry">
            <mxPoint x="110" y="760" as="targetPoint" />
          </mxGeometry>
        </mxCell>
        <mxCell id="pRtf4ImA8-UgucGfnO2y-29" value="draw()" style="shape=parallelogram;perimeter=parallelogramPerimeter;whiteSpace=wrap;html=1;fixedSize=1;" vertex="1" parent="1">
          <mxGeometry x="50" y="700" width="120" height="40" as="geometry" />
        </mxCell>
        <mxCell id="pRtf4ImA8-UgucGfnO2y-32" style="edgeStyle=orthogonalEdgeStyle;rounded=0;orthogonalLoop=1;jettySize=auto;html=1;" edge="1" parent="1" source="pRtf4ImA8-UgucGfnO2y-31" target="pRtf4ImA8-UgucGfnO2y-33">
          <mxGeometry relative="1" as="geometry">
            <mxPoint x="110" y="820" as="targetPoint" />
          </mxGeometry>
        </mxCell>
        <mxCell id="pRtf4ImA8-UgucGfnO2y-31" value="Fractal(depth, dividedAngle)" style="rounded=0;whiteSpace=wrap;html=1;" vertex="1" parent="1">
          <mxGeometry x="50" y="760" width="120" height="40" as="geometry" />
        </mxCell>
        <mxCell id="pRtf4ImA8-UgucGfnO2y-34" style="edgeStyle=orthogonalEdgeStyle;rounded=0;orthogonalLoop=1;jettySize=auto;html=1;" edge="1" parent="1" source="pRtf4ImA8-UgucGfnO2y-33" target="pRtf4ImA8-UgucGfnO2y-35">
          <mxGeometry relative="1" as="geometry">
            <mxPoint x="110" y="880" as="targetPoint" />
          </mxGeometry>
        </mxCell>
        <mxCell id="pRtf4ImA8-UgucGfnO2y-33" value="draw()" style="shape=parallelogram;perimeter=parallelogramPerimeter;whiteSpace=wrap;html=1;fixedSize=1;" vertex="1" parent="1">
          <mxGeometry x="50" y="820" width="120" height="40" as="geometry" />
        </mxCell>
        <mxCell id="pRtf4ImA8-UgucGfnO2y-36" style="edgeStyle=orthogonalEdgeStyle;rounded=0;orthogonalLoop=1;jettySize=auto;html=1;" edge="1" parent="1" source="pRtf4ImA8-UgucGfnO2y-35" target="pRtf4ImA8-UgucGfnO2y-37">
          <mxGeometry relative="1" as="geometry">
            <mxPoint x="110" y="960" as="targetPoint" />
          </mxGeometry>
        </mxCell>
        <mxCell id="pRtf4ImA8-UgucGfnO2y-35" value="&lt;div&gt;Fractal(depth, -dividedAngle);&lt;/div&gt;&lt;div&gt;&amp;nbsp; angle -= dividedAngle&lt;/div&gt;" style="rounded=0;whiteSpace=wrap;html=1;" vertex="1" parent="1">
          <mxGeometry x="50" y="880" width="120" height="60" as="geometry" />
        </mxCell>
        <mxCell id="pRtf4ImA8-UgucGfnO2y-38" style="edgeStyle=orthogonalEdgeStyle;rounded=0;orthogonalLoop=1;jettySize=auto;html=1;" edge="1" parent="1" source="pRtf4ImA8-UgucGfnO2y-37" target="pRtf4ImA8-UgucGfnO2y-39">
          <mxGeometry relative="1" as="geometry">
            <mxPoint x="110" y="1020" as="targetPoint" />
          </mxGeometry>
        </mxCell>
        <mxCell id="pRtf4ImA8-UgucGfnO2y-37" value="draw()" style="shape=parallelogram;perimeter=parallelogramPerimeter;whiteSpace=wrap;html=1;fixedSize=1;" vertex="1" parent="1">
          <mxGeometry x="50" y="960" width="120" height="40" as="geometry" />
        </mxCell>
        <mxCell id="pRtf4ImA8-UgucGfnO2y-40" style="edgeStyle=orthogonalEdgeStyle;rounded=0;orthogonalLoop=1;jettySize=auto;html=1;" edge="1" parent="1" source="pRtf4ImA8-UgucGfnO2y-39" target="pRtf4ImA8-UgucGfnO2y-41">
          <mxGeometry relative="1" as="geometry">
            <mxPoint x="110" y="1110" as="targetPoint" />
          </mxGeometry>
        </mxCell>
        <mxCell id="pRtf4ImA8-UgucGfnO2y-39" value="&lt;div&gt;angle -= dividedAngle;&lt;/div&gt;&lt;div&gt;&amp;nbsp; Fractal(depth, dividedAngle)&lt;/div&gt;" style="rounded=0;whiteSpace=wrap;html=1;" vertex="1" parent="1">
          <mxGeometry x="50" y="1020" width="120" height="60" as="geometry" />
        </mxCell>
        <mxCell id="pRtf4ImA8-UgucGfnO2y-42" style="edgeStyle=orthogonalEdgeStyle;rounded=0;orthogonalLoop=1;jettySize=auto;html=1;" edge="1" parent="1" source="pRtf4ImA8-UgucGfnO2y-41" target="pRtf4ImA8-UgucGfnO2y-43">
          <mxGeometry relative="1" as="geometry">
            <mxPoint x="110" y="1160" as="targetPoint" />
          </mxGeometry>
        </mxCell>
        <mxCell id="pRtf4ImA8-UgucGfnO2y-41" value="draw()" style="shape=parallelogram;perimeter=parallelogramPerimeter;whiteSpace=wrap;html=1;fixedSize=1;" vertex="1" parent="1">
          <mxGeometry x="50" y="1100" width="120" height="40" as="geometry" />
        </mxCell>
        <mxCell id="pRtf4ImA8-UgucGfnO2y-44" style="edgeStyle=orthogonalEdgeStyle;rounded=0;orthogonalLoop=1;jettySize=auto;html=1;" edge="1" parent="1" source="pRtf4ImA8-UgucGfnO2y-43" target="pRtf4ImA8-UgucGfnO2y-45">
          <mxGeometry relative="1" as="geometry">
            <mxPoint x="110" y="1210" as="targetPoint" />
          </mxGeometry>
        </mxCell>
        <mxCell id="pRtf4ImA8-UgucGfnO2y-43" value="Fractal(depth, -dividedAngle)" style="rounded=0;whiteSpace=wrap;html=1;" vertex="1" parent="1">
          <mxGeometry x="50" y="1160" width="120" height="30" as="geometry" />
        </mxCell>
        <mxCell id="pRtf4ImA8-UgucGfnO2y-46" style="edgeStyle=orthogonalEdgeStyle;rounded=0;orthogonalLoop=1;jettySize=auto;html=1;" edge="1" parent="1" source="pRtf4ImA8-UgucGfnO2y-45" target="pRtf4ImA8-UgucGfnO2y-47">
          <mxGeometry relative="1" as="geometry">
            <mxPoint x="110" y="1270" as="targetPoint" />
          </mxGeometry>
        </mxCell>
        <mxCell id="pRtf4ImA8-UgucGfnO2y-45" value="draw()" style="shape=parallelogram;perimeter=parallelogramPerimeter;whiteSpace=wrap;html=1;fixedSize=1;" vertex="1" parent="1">
          <mxGeometry x="50" y="1210" width="120" height="40" as="geometry" />
        </mxCell>
        <mxCell id="pRtf4ImA8-UgucGfnO2y-48" style="edgeStyle=orthogonalEdgeStyle;rounded=0;orthogonalLoop=1;jettySize=auto;html=1;" edge="1" parent="1" source="pRtf4ImA8-UgucGfnO2y-47" target="pRtf4ImA8-UgucGfnO2y-49">
          <mxGeometry relative="1" as="geometry">
            <mxPoint x="110" y="1320" as="targetPoint" />
          </mxGeometry>
        </mxCell>
        <mxCell id="pRtf4ImA8-UgucGfnO2y-47" value="Fractal(depth, dividedAngle)" style="rounded=0;whiteSpace=wrap;html=1;" vertex="1" parent="1">
          <mxGeometry x="50" y="1270" width="120" height="30" as="geometry" />
        </mxCell>
        <mxCell id="pRtf4ImA8-UgucGfnO2y-50" style="edgeStyle=orthogonalEdgeStyle;rounded=0;orthogonalLoop=1;jettySize=auto;html=1;" edge="1" parent="1" source="pRtf4ImA8-UgucGfnO2y-49" target="pRtf4ImA8-UgucGfnO2y-51">
          <mxGeometry relative="1" as="geometry">
            <mxPoint x="110" y="1380" as="targetPoint" />
          </mxGeometry>
        </mxCell>
        <mxCell id="pRtf4ImA8-UgucGfnO2y-49" value="возврат depth, dividedangle" style="shape=parallelogram;perimeter=parallelogramPerimeter;whiteSpace=wrap;html=1;fixedSize=1;" vertex="1" parent="1">
          <mxGeometry x="50" y="1320" width="120" height="40" as="geometry" />
        </mxCell>
        <mxCell id="pRtf4ImA8-UgucGfnO2y-51" value="конец fractal" style="ellipse;whiteSpace=wrap;html=1;" vertex="1" parent="1">
          <mxGeometry x="50" y="1380" width="120" height="50" as="geometry" />
        </mxCell>
      </root>
    </mxGraphModel>
  </diagram>
</mxfile>
